<svg xmlns="http://www.w3.org/2000/svg" viewBox="0 0 320 320"><rect width="320" height="320" rx="48" fill="#fff6ef"/><ellipse cx="160" cy="184" rx="78" ry="72" fill="#f3f3f3" stroke="#9aa5ab" stroke-width="6"/><ellipse cx="124" cy="78" rx="22" ry="70" fill="#f3f3f3" stroke="#9aa5ab" stroke-width="6"/><ellipse cx="196" cy="78" rx="22" ry="70" fill="#f3f3f3" stroke="#9aa5ab" stroke-width="6"/><ellipse cx="124" cy="84" rx="10" ry="48" fill="#ffcad4"/><ellipse cx="196" cy="84" rx="10" ry="48" fill="#ffcad4"/><circle cx="136" cy="170" r="8" fill="#32424c"/><circle cx="184" cy="170" r="8" fill="#32424c"/><ellipse cx="160" cy="192" rx="12" ry="9" fill="#ff9db0"/><path d="M160 201c-10 8-18 12-32 14M160 201c10 8 18 12 32 14" stroke="#88959c" stroke-width="4" stroke-linecap="round"/><path d="M90 194h44M186 194h44M90 210h44M186 210h44" stroke="#a7b2b8" stroke-width="4" stroke-linecap="round"/></svg>
